# xmcd
#
# Track frame offsets: 
#        150
#        38590
#        54614
#        82661
#        101762
#        119053
#        146250
#
# Disc length: 2200 seconds
#
# Revision: 4
# Processed by: cddbd v1.5.1PL0 Copyright (c) Steve Scherf et al.
# Submitted via: ExactAudioCopy v0.95a5
#
DISCID=54089607
DTITLE=Sarah Vaughan - Recital a Paris, 1985 Disc 2
DYEAR=1999
DGENRE=Jazz
TTITLE0=My Funny Valentine
TTITLE1=From This Moment On
TTITLE2=Send in the Clowns
TTITLE3=Sassy's Blues
TTITLE4=Tenderly
TTITLE5=Scat Chase (Sassy's Blues)
TTITLE6=Once in a While
EXTD=
EXTT0=
EXTT1=
EXTT2=
EXTT3=
EXTT4=
EXTT5=
EXTT6=
PLAYORDER=
